<svg width="48" height="48" viewBox="0 0 48 48" fill="none" xmlns="http://www.w3.org/2000/svg">
<rect width="48" height="48" rx="24" fill="white"/>
<path d="M29.3 13.45L35.4875 19.625C36.4625 20.6125 36.4625 22.1875 35.4875 23.175L24 34.6625C23.0609 35.5989 21.7887 36.1248 20.4625 36.1248C19.1363 36.1248 17.8641 35.5989 16.925 34.6625L12.5125 30.25C11.5375 29.2625 11.5375 27.6875 12.5125 26.7L25.7625 13.45C26.75 12.475 28.325 12.475 29.3 13.45ZM14.275 28.475L18.7 32.8875C19.675 33.875 21.25 33.875 22.2375 32.8875L26.65 28.475L20.4625 22.2875L14.275 28.475Z" fill="black"/>
<rect x="0.5" y="0.5" width="47" height="47" rx="23.5" stroke="black" stroke-opacity="0.25"/>
</svg>
